<?xml version="1.0" encoding="utf-8"?>
<!-- Generator: Adobe Illustrator 21.0.0, SVG Export Plug-In . SVG Version: 6.00 Build 0)  -->
<svg version="1.1" id="Layer_1" xmlns="http://www.w3.org/2000/svg" xmlns:xlink="http://www.w3.org/1999/xlink" x="0px" y="0px"
	 viewBox="0 0 28 20" style="enable-background:new 0 0 28 20;" xml:space="preserve">
<style type="text/css">
	.st0{fill:#FFFFFF;}
</style>
<path class="st0" d="M26,8H6.8l4.6-4.6C11.8,3,12,2.5,12,2c0-1-0.8-2-2-2C9.5,0,9,0.2,8.6,0.6l-8,8C0.3,8.9,0,9.3,0,10
	s0.3,1.1,0.6,1.4l8,8C9,19.8,9.5,20,10,20c1.2,0,2-1,2-2c0-0.5-0.2-1-0.6-1.4L6.8,12H26c1.1,0,2-0.9,2-2S27.1,8,26,8z"/>
</svg>
