<?xml version="1.0" encoding="utf-8"?>
<!-- Generator: Adobe Illustrator 21.0.0, SVG Export Plug-In . SVG Version: 6.00 Build 0)  -->
<svg version="1.1" id="Слой_1" xmlns="http://www.w3.org/2000/svg" xmlns:xlink="http://www.w3.org/1999/xlink" x="0px" y="0px"
	 viewBox="0 0 50 50" style="enable-background:new 0 0 50 50;" xml:space="preserve">
<g>
	<path d="M25,26.5c3,0,17.5-11.7,17.5-11.7l0-1.5c0-1.6-1.3-2.9-2.9-2.9H11.3c-2.1,0-3.8,1.7-3.8,3.8c0,0.3,0.1,0.5,0.3,0.7
		C10,16.6,22.4,26.5,25,26.5z"/>
	<path d="M41.1,20.3C37.4,23.1,27.5,30.5,25,30.5c-2.3,0-12.3-7.4-16.1-10.2c-0.6-0.4-1.4,0-1.4,0.7l0,15.7c0,1.6,1.3,2.9,2.9,2.9
		h29.2c1.6,0,2.9-1.3,2.9-2.9l0-15.7C42.5,20.2,41.6,19.8,41.1,20.3z"/>
</g>
</svg>
