<?xml version="1.0" encoding="utf-8"?>
<!-- Generator: Adobe Illustrator 21.0.0, SVG Export Plug-In . SVG Version: 6.00 Build 0)  -->
<svg version="1.1" id="Слой_1" xmlns="http://www.w3.org/2000/svg" xmlns:xlink="http://www.w3.org/1999/xlink" x="0px" y="0px"
	 viewBox="0 0 50 50" style="enable-background:new 0 0 50 50;" xml:space="preserve">
<g>
	<path d="M23.4,0.7C11.2,1.4,1.2,11.1,0.1,23.3c-1.1,12.1,6.4,22.5,17,26.1c1.2,0.2,1.7-0.5,1.7-1.2c0-0.6,0-2.6,0-4.7
		c-7,1.5-8.4-2.9-8.4-2.9c-1.1-2.9-2.8-3.7-2.8-3.7c-2.3-1.6,0.2-1.5,0.2-1.5c2.5,0.2,3.8,2.6,3.8,2.6c2.2,3.8,5.9,2.7,7.3,2.1
		c0.2-1.6,0.9-2.7,1.6-3.3C14.9,36,9,33.9,9,24.3c0-2.7,1-5,2.6-6.7c-0.3-0.6-1.1-3.2,0.2-6.6c0,0,2.1-0.7,6.9,2.6
		c2-0.6,4.1-0.8,6.3-0.8c2.1,0,4.3,0.3,6.3,0.8c4.8-3.2,6.9-2.6,6.9-2.6c1.4,3.4,0.5,6,0.3,6.6c1.6,1.8,2.6,4,2.6,6.7
		c0,9.6-5.8,11.7-11.4,12.3c0.9,0.8,1.7,2.3,1.7,4.6c0,3.3,0,6,0,6.9c0,0.7,0.5,1.4,1.7,1.2C42.8,46,50,36.7,50,25.6
		C50,11.3,37.9-0.3,23.4,0.7z"/>
</g>
</svg>
