<?xml version="1.0" encoding="utf-8"?>
<!-- Generator: Adobe Illustrator 21.0.0, SVG Export Plug-In . SVG Version: 6.00 Build 0)  -->
<svg version="1.1" id="Слой_1" xmlns="http://www.w3.org/2000/svg" xmlns:xlink="http://www.w3.org/1999/xlink" x="0px" y="0px"
	 viewBox="0 0 50 50" style="enable-background:new 0 0 50 50;" xml:space="preserve">
<g>
	<path d="M25,12c-7.1,0-12.9,5.7-12.9,12.9c0,7.2,5.7,12.9,12.9,12.9S37.9,32,37.9,24.9S32.1,12,25,12z M25,33.2
		c-4.5,0-8.3-3.7-8.3-8.3c0-4.5,3.7-8.3,8.3-8.3s8.3,3.7,8.3,8.3C33.3,29.4,29.5,33.2,25,33.2z"/>
	<circle cx="38.4" cy="11.7" r="2.9"/>
	<path d="M35.4,0H14.6C5.8,0,0,5.8,0,14.6v20.7c0,4.3,1.4,8.1,4.2,10.8C7,48.7,10.6,50,14.7,50h20.6c4.3,0,8-1.4,10.6-3.9
		c2.7-2.6,4.1-6.4,4.1-10.7V14.6c0-4.2-1.4-7.9-4-10.5C43.3,1.4,39.6,0,35.4,0z M45.6,35.4c0,3.1-1.1,5.6-2.9,7.4
		c-1.8,1.7-4.3,2.6-7.4,2.6H14.7c-3,0-5.5-0.9-7.4-2.6c-1.8-1.8-2.7-4.3-2.7-7.5V14.6c0-3,0.9-5.5,2.7-7.4c1.7-1.7,4.3-2.6,7.4-2.6
		h20.8c3,0,5.5,0.9,7.4,2.7c1.7,1.8,2.7,4.3,2.7,7.3V35.4z"/>
</g>
</svg>
