<?xml version="1.0" encoding="utf-8"?>
<!-- Generator: Adobe Illustrator 21.0.0, SVG Export Plug-In . SVG Version: 6.00 Build 0)  -->
<svg version="1.1" id="Слой_1" xmlns:sketch="http://www.bohemiancoding.com/sketch/ns"
	 xmlns="http://www.w3.org/2000/svg" xmlns:xlink="http://www.w3.org/1999/xlink" x="0px" y="0px" viewBox="0 0 23 13"
	 style="enable-background:new 0 0 23 13;" xml:space="preserve">
<style type="text/css">
	.st0{fill:#929292;}
</style>
<g>
	<path class="st0" d="M12,4h-2v5h2c0.6,0,1-0.4,1-1V5C13,4.4,12.6,4,12,4z"/>
	<path class="st0" d="M6,4H4v2h2c0.6,0,1-0.4,1-1C7,4.4,6.6,4,6,4z"/>
	<path class="st0" d="M20,0H3C1.3,0,0,1.3,0,3v7c0,1.7,1.3,3,3,3h17c1.7,0,3-1.3,3-3V3C23,1.3,21.7,0,20,0z M6,7H4v3H3V5V3h3
		c1.1,0,2,0.9,2,2C8,6.1,7.1,7,6,7z M14,8c0,1.1-0.9,2-2,2H9V3h3c1.1,0,2,0.9,2,2V8z M20,4h-4v2h3v1h-3v3h-1V3h5V4z"/>
</g>
</svg>
