<?xml version="1.0" encoding="utf-8"?>
<!-- Generator: Adobe Illustrator 21.0.0, SVG Export Plug-In . SVG Version: 6.00 Build 0)  -->
<svg version="1.1" id="Слой_1" xmlns="http://www.w3.org/2000/svg" xmlns:xlink="http://www.w3.org/1999/xlink" x="0px" y="0px"
	 viewBox="0 0 50 50" style="enable-background:new 0 0 50 50;" xml:space="preserve">
<g>
	<path d="M43.5,5.4c-1.2,0.4-12,4.5-21.6,8.4c-8.6,3.6-15.5,6.7-16.4,7.1c-0.9,0.3-2.9,1.2-3,2.5c0,0.9,0.7,1.7,2.1,2.3
		c1.5,0.8,8.2,3,9.6,3.5c0.5,1.7,3.4,11.4,3.5,11.9c0.2,0.9,0.8,1.4,1.1,1.6c0,0,0.1,0.1,0.2,0.2c0.1,0.1,0.3,0.1,0.6,0.1
		c0.3,0,0.7-0.1,1.1-0.4c1.8-1.5,4.9-4.7,5.8-5.7c3.9,3,8,6.4,8.4,6.8l0,0c0.9,0.8,1.9,1.2,2.8,1.2c0.3,0,0.6,0,0.9-0.1
		c1-0.3,1.8-1.3,2-2.6c0,0,0-0.2,0.1-0.6c1.7-7.2,3-13.6,4-18.9c1-5.2,1.9-10.3,2.3-13.1c0.1-0.7,0.2-1.2,0.2-1.6
		c0.1-1,0.2-2.1-0.5-2.7C46.3,4.9,45.3,4.8,43.5,5.4z M38.7,13.7l-5.9,5.5c-4.1,3.8-9.5,8.7-13,11.9c0,0,0,0,0,0l0,0c0,0,0,0,0,0
		c0,0,0,0,0,0.1v0c0,0,0,0,0,0c-0.2,2.7-0.7,7.4-0.9,9.5c0,0,0,0,0,0c-0.2-0.6-2.9-9.9-3.5-11.8l23.3-15.4c0,0,0.1-0.1,0.2-0.1
		c0,0,0,0,0.1,0s0,0,0.1,0C38.8,13.4,38.8,13.6,38.7,13.7z"/>
</g>
</svg>
